<svg width="32" height="32" viewBox="0 0 32 32" fill="none" xmlns="http://www.w3.org/2000/svg">
<rect width="32" height="32" rx="8" fill="#14B8A6"/>
<path d="M16.6286 9.5C18.1143 9.5 19.4286 10.0429 20.5714 11.1286C21.7143 12.2143 22.2857 13.5 22.2857 15C22.2857 16.5 21.7143 17.7857 20.5714 18.8714C19.4286 19.9571 18.1143 20.5 16.6286 20.5H13.4V22.5H11.1143V9.5H16.6286ZM16.3429 18.2C17.3143 18.2 18.1286 17.8571 18.7857 17.1714C19.4429 16.4857 19.7714 15.6857 19.7714 14.7714C19.7714 13.8571 19.4429 13.0571 18.7857 12.3714C18.1286 11.6857 17.3143 11.3429 16.3429 11.3429H13.4V18.2H16.3429Z" fill="white"/>
</svg>
